<?xml version="1.0" standalone="no"?>
<!DOCTYPE svg PUBLIC "-//W3C//DTD SVG 20010904//EN"
 "http://www.w3.org/TR/2001/REC-SVG-20010904/DTD/svg10.dtd">
<svg version="1.0" xmlns="http://www.w3.org/2000/svg"
 width="1024.000000pt" height="1024.000000pt" viewBox="0 0 1024.000000 1024.000000"
 preserveAspectRatio="xMidYMid meet">

<g transform="translate(0.000000,1024.000000) scale(0.100000,-0.100000)"
fill="#000000" stroke="none">
<path d="M5207 9465 c-68 -25 -151 -88 -281 -215 -136 -132 -287 -304 -398
-451 -139 -187 -307 -450 -354 -555 -16 -36 -31 -54 -52 -63 -43 -18 -89 -70
-197 -226 -119 -171 -145 -223 -145 -291 0 -35 -5 -56 -16 -65 -24 -19 -205
-296 -228 -347 -10 -23 -23 -42 -27 -42 -5 0 -72 37 -150 81 -175 100 -299
160 -351 167 -31 4 -44 0 -63 -18 -28 -26 -33 -75 -12 -102 6 -9 89 -55 182
-102 216 -108 329 -180 322 -204 -3 -9 -17 -60 -32 -112 -15 -52 -29 -97 -31
-99 -2 -2 -52 8 -111 23 -128 31 -250 52 -354 62 -71 6 -77 5 -104 -19 -22
-18 -29 -33 -29 -60 0 -60 20 -72 146 -86 137 -15 294 -45 367 -68 l54 -18 3
-105 c3 -115 21 -213 60 -333 14 -43 24 -80 23 -81 -2 -2 -55 1 -118 7 -83 8
-146 8 -230 -1 -418 -42 -721 -240 -839 -550 -23 -59 -26 -81 -26 -192 0 -94
4 -134 16 -162 l16 -37 -481 -3 c-476 -3 -483 -4 -539 -26 -76 -31 -159 -108
-195 -180 l-28 -57 0 -1765 0 -1765 28 -57 c37 -76 104 -143 175 -176 l57 -27
1765 0 1765 0 57 27 c112 52 185 145 208 266 l13 62 71 0 c85 0 156 18 226 56
63 35 110 86 172 191 92 155 197 218 427 258 l84 15 48 -45 c69 -65 163 -122
237 -145 171 -53 403 -6 523 106 14 14 61 34 110 49 248 71 430 184 617 380
l100 105 60 0 c340 0 802 252 1089 594 262 312 427 700 473 1111 15 137 12
447 -5 582 -32 240 -74 398 -206 770 -111 315 -130 389 -136 548 -9 221 28
354 152 536 84 124 100 171 100 300 0 90 -2 99 -38 171 -61 124 -180 212 -336
248 -74 17 -211 8 -282 -19 -264 -100 -485 -460 -506 -824 -4 -71 -10 -107
-17 -105 -6 2 -110 36 -231 77 l-220 74 1 93 c2 91 3 96 54 201 121 248 203
480 264 743 65 284 74 477 27 574 -42 86 -104 115 -261 123 -235 12 -648 -88
-903 -219 l-98 -50 -37 25 c-189 128 -460 256 -652 308 -90 24 -100 31 -100
66 0 35 -105 392 -146 495 -88 225 -213 440 -297 514 -81 70 -150 88 -230 59z
m113 -262 c39 -47 147 -266 195 -396 49 -134 99 -310 129 -458 30 -144 48
-170 130 -190 276 -64 525 -178 768 -350 55 -40 107 -69 121 -69 13 0 76 26
139 58 290 147 671 258 853 250 l70 -3 3 -61 c6 -129 -51 -414 -133 -659 -44
-133 -151 -395 -169 -412 -2 -3 -71 36 -153 85 -492 297 -1225 630 -1948 884
-253 88 -363 123 -654 207 -145 42 -266 81 -268 87 -9 26 284 439 468 661 180
216 368 402 406 403 6 0 26 -17 43 -37z m-835 -1279 c676 -194 1314 -436 2015
-764 414 -194 868 -453 871 -498 3 -47 -43 -293 -64 -344 l-12 -28 -100 71
c-210 148 -434 279 -780 454 -327 165 -466 226 -995 435 -497 197 -768 293
-1085 384 -126 37 -245 73 -263 82 l-33 14 28 38 c72 96 101 130 107 125 3 -4
6 1 6 11 0 10 12 33 27 52 31 41 11 44 278 -32z m-125 -514 c173 -56 396 -131
494 -167 204 -73 889 -347 1044 -417 324 -146 674 -322 918 -461 118 -68 345
-217 363 -239 21 -25 -16 -226 -75 -409 -21 -61 -29 -77 -42 -73 -36 10 -137
26 -169 26 -66 0 -110 -83 -65 -123 10 -9 54 -24 97 -33 44 -10 82 -19 84 -21
5 -3 -87 -143 -94 -143 -3 0 -36 15 -73 34 -100 50 -136 60 -164 45 -31 -16
-38 -28 -38 -65 0 -35 24 -61 85 -92 87 -45 88 -41 -11 -115 -248 -187 -515
-255 -916 -235 -393 19 -895 175 -1285 398 -546 314 -908 769 -940 1181 l-6
81 24 -7 c13 -4 67 -27 120 -51 52 -24 101 -44 109 -44 23 0 50 32 50 60 0 35
-26 57 -138 116 -51 27 -104 58 -118 69 l-26 21 21 79 c12 44 24 86 26 93 3 8
42 -15 105 -63 106 -78 143 -91 174 -59 9 8 16 27 16 41 0 27 -27 57 -160 174
l-75 67 24 48 c27 58 128 205 218 321 57 73 66 81 86 73 12 -5 164 -55 337
-110z m4520 -326 c78 -42 105 -89 105 -178 0 -80 -14 -114 -89 -216 -101 -137
-154 -303 -163 -510 -9 -212 24 -371 153 -722 166 -454 222 -737 211 -1073
-12 -369 -103 -686 -279 -972 -204 -335 -535 -592 -885 -689 -46 -12 -83 -19
-83 -14 0 4 24 58 54 120 30 62 66 152 81 199 15 47 28 91 30 98 2 7 32 26 66
43 253 125 452 348 570 636 82 200 118 400 119 646 0 353 -64 610 -276 1104
-173 405 -214 561 -214 818 0 200 25 307 108 469 69 136 157 221 270 264 59
22 159 11 222 -23z m-1255 -789 c119 -20 402 -130 432 -167 6 -7 16 -40 23
-73 6 -33 23 -98 36 -144 l26 -84 -46 -66 c-53 -79 -94 -120 -104 -105 -4 5
-27 39 -51 74 -119 173 -235 288 -381 378 -41 25 -76 47 -78 48 -2 1 8 24 21
51 13 26 30 65 37 86 11 34 14 37 28 24 10 -8 35 -18 57 -22z m-156 -399 c135
-87 267 -233 368 -408 90 -157 164 -156 323 4 l79 79 14 -28 c44 -86 144 -331
187 -460 184 -551 132 -1087 -140 -1452 -61 -82 -118 -138 -192 -189 l-48 -33
0 148 c-1 315 -66 588 -207 866 -156 306 -367 545 -663 751 -47 33 -86 61 -88
62 -9 6 105 183 118 183 19 1 248 -110 355 -172 104 -59 124 -64 158 -37 29
23 37 73 17 110 -13 25 -218 142 -353 203 -62 27 -113 50 -115 52 -1 1 18 63
43 137 25 74 48 156 51 181 4 26 11 47 16 47 5 0 40 -20 77 -44z m-4009 8
l106 -16 74 -101 c126 -172 401 -432 600 -569 24 -16 1 -17 -427 -17 l-451 -1
14 53 c21 80 18 112 -12 136 -30 24 -72 27 -96 9 -8 -7 -38 -47 -66 -88 -81
-123 -224 -242 -254 -212 -23 23 -22 112 3 185 l24 69 -24 20 c-70 56 -164
-59 -164 -202 0 -36 3 -76 8 -89 7 -23 6 -24 -45 -19 -97 10 -143 69 -138 178
3 48 11 81 32 123 25 48 28 61 18 82 -15 32 -68 34 -106 4 -30 -24 -86 -115
-86 -141 0 -10 -4 -18 -10 -18 -8 0 -13 21 -24 97 -6 45 16 138 46 195 19 35
61 87 107 131 198 189 479 251 871 191z m3603 -850 c393 -305 658 -720 747
-1170 28 -137 38 -418 21 -549 -44 -335 -185 -614 -424 -842 -166 -158 -320
-246 -521 -297 -84 -21 -104 -31 -142 -66 -25 -23 -71 -54 -102 -68 -48 -23
-71 -27 -142 -27 -137 1 -205 46 -365 240 -112 135 -235 251 -351 327 -89 60
-94 65 -94 98 0 41 38 127 69 154 40 36 17 96 -37 96 -63 0 -141 -82 -162
-170 -7 -28 -13 -50 -13 -50 -1 0 -22 6 -47 14 l-45 13 -3 61 c-3 64 12 104
59 164 41 51 2 101 -66 84 -61 -15 -135 -116 -135 -184 0 -39 -12 -41 -39 -6
-28 35 -26 69 5 132 67 135 272 226 450 201 156 -22 317 -120 512 -311 93 -92
158 -183 198 -278 32 -78 63 -110 107 -110 43 0 95 33 103 65 11 46 -5 117
-45 202 -54 111 -105 185 -201 286 l-80 85 -11 77 c-13 93 1 255 32 365 27 99
97 231 161 308 117 138 250 202 418 202 92 0 163 -18 255 -65 82 -41 125 -45
155 -13 64 69 18 149 -131 223 -38 20 -109 45 -157 56 -232 56 -470 -20 -662
-211 -177 -175 -280 -413 -296 -679 l-7 -107 -81 43 c-217 112 -438 118 -644
17 -95 -46 -213 -143 -249 -206 -10 -15 -21 -28 -25 -28 -9 0 -8 164 1 344 l6
119 61 17 c77 21 154 64 268 151 110 84 172 109 267 109 83 0 106 10 125 55
37 89 -33 154 -166 155 -116 0 -212 -39 -354 -145 -94 -70 -155 -105 -181
-105 -21 0 -20 77 1 130 22 54 8 90 -34 90 -61 0 -109 -69 -120 -174 l-7 -61
-43 3 c-24 2 -60 9 -80 16 -36 12 -37 15 -40 65 -4 66 21 161 58 228 44 77 37
113 -22 113 -58 0 -142 -111 -167 -219 -5 -24 -12 -45 -15 -48 -10 -10 -47 85
-53 135 -22 185 192 443 449 542 168 65 320 80 576 56 95 -9 226 -16 290 -16
222 0 478 45 638 111 132 55 324 181 409 268 21 23 41 41 43 41 2 0 36 -25 75
-56z m-4565 -121 c121 -80 291 -111 434 -79 75 17 210 74 222 95 5 8 236 11
799 11 774 0 793 -1 825 -20 39 -24 52 -54 52 -123 0 -50 -2 -53 -37 -72 -112
-60 -276 -208 -326 -296 -12 -21 -25 -39 -30 -39 -4 0 -36 27 -72 60 -113 105
-135 98 -278 -85 -57 -72 -346 -426 -642 -786 -296 -360 -561 -682 -589 -716
-28 -34 -54 -62 -58 -62 -6 -1 -164 200 -417 532 -79 103 -153 194 -165 202
-11 8 -39 15 -62 15 -37 0 -55 -11 -180 -106 -196 -150 -204 -159 -204 -210 0
-40 10 -55 204 -291 113 -136 323 -394 468 -573 154 -190 275 -330 291 -338
48 -23 96 -7 144 46 47 52 1278 1544 1417 1717 49 61 92 114 96 118 4 4 24
-22 46 -59 70 -120 177 -201 329 -250 l70 -22 5 -426 c3 -234 2 -426 -2 -426
-4 0 -27 14 -52 30 -225 152 -488 128 -671 -60 -93 -97 -120 -159 -120 -276 0
-85 2 -95 39 -169 56 -114 175 -230 381 -373 159 -110 219 -155 351 -265 l70
-58 -7 -70 c-7 -80 -29 -113 -88 -130 -24 -7 -594 -9 -1739 -7 l-1704 3 -29
33 -29 32 0 1730 0 1729 24 28 c23 27 28 28 143 34 65 3 325 6 577 7 l459 2
55 -37z m2664 -2264 c32 -20 106 -56 165 -79 219 -87 337 -158 470 -284 46
-43 83 -82 83 -87 0 -5 -10 -9 -23 -9 -47 0 -184 -43 -251 -78 -96 -50 -167
-119 -232 -226 -31 -50 -66 -102 -78 -115 -35 -39 -94 -61 -168 -61 -102 0
-156 25 -278 130 -58 50 -178 141 -268 201 -285 193 -388 317 -362 434 8 35
44 85 61 85 4 0 13 -17 20 -37 53 -167 157 -264 221 -206 27 25 22 56 -21 123
-34 52 -81 165 -81 193 0 19 127 0 186 -27 81 -37 138 -82 310 -247 83 -79
162 -150 176 -158 34 -18 73 -8 94 25 16 24 15 29 -24 129 -44 109 -66 192
-76 288 -5 46 -4 57 6 51 7 -5 39 -25 70 -45z"/>
<path d="M5107 8753 c-59 -42 -209 -233 -324 -413 -63 -98 -70 -117 -50 -137
14 -14 28 -15 139 -3 100 11 157 11 296 1 135 -10 176 -10 187 -1 35 29 -2
234 -79 441 -52 138 -93 166 -169 112z"/>
<path d="M7390 7744 c-68 -18 -202 -76 -286 -122 -92 -51 -134 -89 -134 -118
0 -16 33 -69 90 -145 50 -66 111 -156 136 -199 48 -82 69 -99 102 -81 27 15
43 43 89 156 64 157 133 402 133 472 0 53 -33 63 -130 37z"/>
<path d="M4805 6856 c-61 -28 -128 -101 -163 -176 -36 -77 -43 -209 -14 -266
25 -49 57 -79 104 -99 207 -86 458 231 349 442 -56 110 -168 150 -276 99z"/>
<path d="M6233 6279 c-132 -65 -227 -287 -183 -425 40 -125 164 -177 285 -120
140 65 231 281 180 427 -41 116 -174 171 -282 118z"/>
<path d="M5322 6150 c-59 -36 -64 -91 -17 -196 27 -61 24 -69 -44 -103 -117
-59 -210 -20 -251 104 -25 74 -49 100 -84 91 -59 -15 -72 -108 -27 -202 70
-148 214 -197 406 -139 16 5 25 -4 49 -49 36 -71 102 -131 158 -146 105 -29
267 19 294 87 12 28 11 34 -7 57 -25 31 -52 33 -110 6 -118 -53 -219 7 -219
130 0 39 1 40 69 74 107 54 145 117 106 172 -14 20 -213 116 -265 128 -17 3
-38 -2 -58 -14z"/>
</g>
</svg>
